<svg width="11" height="10" viewBox="0 0 11 10" fill="none" xmlns="http://www.w3.org/2000/svg">
<path d="M5.95534 0.268721L7.26233 2.78836C7.2987 2.85847 7.35244 2.91911 7.41892 2.96506C7.4854 3.01102 7.56263 3.0409 7.64394 3.05213L10.566 3.45624C10.6597 3.46917 10.7476 3.50678 10.8199 3.56479C10.8922 3.62281 10.946 3.69892 10.9752 3.78452C11.0044 3.87012 11.0079 3.96179 10.9852 4.04917C10.9625 4.13654 10.9146 4.21612 10.8468 4.27892L8.732 6.24013C8.6124 6.35105 8.55818 6.51066 8.58605 6.66691L9.08523 9.43633C9.1012 9.52502 9.09078 9.61618 9.05514 9.69952C9.0195 9.78286 8.96007 9.85505 8.88357 9.90793C8.80706 9.96081 8.71654 9.99227 8.62223 9.99875C8.52792 10.0052 8.43358 9.98647 8.34989 9.9446L5.73591 8.6368C5.66313 8.60047 5.58218 8.58149 5.5 8.58149C5.41782 8.58149 5.33687 8.60047 5.26409 8.6368L2.65011 9.9446C2.56642 9.98647 2.47208 10.0052 2.37777 9.99875C2.28346 9.99227 2.19294 9.96081 2.11643 9.90793C2.03993 9.85505 1.9805 9.78286 1.94486 9.69952C1.90922 9.61618 1.8988 9.52502 1.91477 9.43633L2.41395 6.66691C2.42785 6.58984 2.42182 6.51071 2.39639 6.43636C2.37096 6.36201 2.3269 6.29466 2.268 6.24013L0.153195 4.27892C0.0854368 4.21612 0.0374987 4.13654 0.0148042 4.04917C-0.00789028 3.96179 -0.00443552 3.87012 0.0247777 3.78452C0.053991 3.69892 0.107797 3.62281 0.180108 3.56479C0.252419 3.50678 0.34035 3.46917 0.433952 3.45624L3.35606 3.05213C3.43737 3.0409 3.5146 3.01102 3.58108 2.96506C3.64756 2.91911 3.7013 2.85847 3.73767 2.78836L5.04466 0.268721C5.23217 -0.0895736 5.76935 -0.0895736 5.95534 0.268721Z" fill="#FFC100"/>
</svg>
