<svg width="97" height="50" viewBox="0 0 97 50" fill="none" xmlns="http://www.w3.org/2000/svg">
<g clip-path="url(#clip0_714_101)">
<path d="M87 0H10C4.47715 0 0 4.47715 0 10V40C0 45.5228 4.47715 50 10 50H87C92.5229 50 97 45.5228 97 40V10C97 4.47715 92.5229 0 87 0Z" fill="#2878A3"/>
<path d="M28 30.5C31.0376 30.5 33.5 28.0376 33.5 25C33.5 21.9624 31.0376 19.5 28 19.5C24.9624 19.5 22.5 21.9624 22.5 25C22.5 28.0376 24.9624 30.5 28 30.5Z" fill="#D9D9D9" stroke="white"/>
<path d="M48 30.5C51.0376 30.5 53.5 28.0376 53.5 25C53.5 21.9624 51.0376 19.5 48 19.5C44.9624 19.5 42.5 21.9624 42.5 25C42.5 28.0376 44.9624 30.5 48 30.5Z" fill="#D9D9D9" stroke="white"/>
<path d="M68 30.5C71.0376 30.5 73.5 28.0376 73.5 25C73.5 21.9624 71.0376 19.5 68 19.5C64.9624 19.5 62.5 21.9624 62.5 25C62.5 28.0376 64.9624 30.5 68 30.5Z" fill="#D9D9D9" stroke="white"/>
</g>
<defs>
<clipPath id="clip0_714_101">
<rect width="97" height="50" fill="white"/>
</clipPath>
</defs>
</svg>
