<svg width="16" height="18" viewBox="0 0 16 18" fill="none" xmlns="http://www.w3.org/2000/svg">
<path d="M15.4222 0.32959C15.8616 0.769043 15.8616 1.48271 15.4222 1.92217L6.42217 10.9222C5.98271 11.3616 5.26904 11.3616 4.82959 10.9222L0.32959 6.42217C-0.109863 5.98272 -0.109863 5.26904 0.32959 4.82959C0.769043 4.39014 1.48271 4.39014 1.92217 4.82959L5.62764 8.53154L13.8331 0.32959C14.2726 -0.109863 14.9862 -0.109863 15.4257 0.32959H15.4222Z" fill="#FF045F"/>
<path d="M15.4222 6.32959C15.8616 6.76904 15.8616 7.48271 15.4222 7.92217L6.42217 16.9222C5.98271 17.3616 5.26904 17.3616 4.82959 16.9222L0.32959 12.4222C-0.109863 11.9827 -0.109863 11.269 0.32959 10.8296C0.769043 10.3901 1.48271 10.3901 1.92217 10.8296L5.62764 14.5315L13.8331 6.32959C14.2726 5.89014 14.9862 5.89014 15.4257 6.32959H15.4222Z" fill="#FF045F"/>
</svg>
