<svg width="22" height="35" viewBox="0 0 22 35" fill="none" xmlns="http://www.w3.org/2000/svg">
<path d="M18.5938 0H3.28125C1.46973 0 0 1.46973 0 3.28125V31.7188C0 33.5303 1.46973 35 3.28125 35H18.5938C20.4053 35 21.875 33.5303 21.875 31.7188V3.28125C21.875 1.46973 20.4053 0 18.5938 0ZM10.9375 32.8125C9.72754 32.8125 8.75 31.835 8.75 30.625C8.75 29.415 9.72754 28.4375 10.9375 28.4375C12.1475 28.4375 13.125 29.415 13.125 30.625C13.125 31.835 12.1475 32.8125 10.9375 32.8125ZM18.5938 25.4297C18.5938 25.8809 18.2246 26.25 17.7734 26.25H4.10156C3.65039 26.25 3.28125 25.8809 3.28125 25.4297V4.10156C3.28125 3.65039 3.65039 3.28125 4.10156 3.28125H17.7734C18.2246 3.28125 18.5938 3.65039 18.5938 4.10156V25.4297Z" fill="black" fill-opacity="0.5"/>
</svg>
