<svg width="17" height="17" viewBox="0 0 17 17" fill="none" xmlns="http://www.w3.org/2000/svg">
<path opacity="0.5" d="M11.729 0.294792C11.542 0.10679 11.288 0.000754119 11.0228 4.00685e-06C10.7577 -0.000746105 10.5031 0.103851 10.315 0.290792C10.2158 0.391926 10.1391 0.51291 10.09 0.645792C9.258 2.38179 8.342 3.36079 7.186 3.93879C5.889 4.57879 4.4 5.02379 2 5.02379C1.80258 5.02472 1.6098 5.08372 1.44568 5.19344C1.28155 5.30315 1.15334 5.45873 1.077 5.64079C1.00143 5.82359 0.981709 6.02468 1.02033 6.21867C1.05895 6.41267 1.15418 6.59088 1.294 6.73079L4.537 9.97379L0 16.0238L6.05 11.4868L9.292 14.7288C9.38487 14.8224 9.49578 14.8963 9.618 14.9458C9.74 14.9968 9.87 15.0238 10 15.0238C10.13 15.0238 10.26 14.9968 10.382 14.9458C10.5649 14.8708 10.7213 14.743 10.8313 14.5789C10.9414 14.4147 11.0001 14.2215 11 14.0238C11 11.6238 11.444 10.1348 12.083 8.85779C12.66 7.70179 13.639 6.78579 15.376 5.95379C15.5088 5.90514 15.6296 5.82839 15.73 5.72879C15.9169 5.54073 16.0215 5.28613 16.0208 5.02096C16.02 4.7558 15.914 4.50179 15.726 4.31479L11.729 0.294792Z" fill="black"/>
</svg>
